<svg xmlns="http://www.w3.org/2000/svg" viewBox="0 0 512 512"><!--!Font Awesome Free 6.5.1 by @fontawesome - https://fontawesome.com License - https://fontawesome.com/license/free Copyright 2024 Fonticons, Inc.--><path d="M496 167c3 8 0 18-7 24l-43 40a193 193 0 0 1 0 50l43 40c7 6 10 16 7 24l-16 35-5 8c-6 11-14 21-22 31-6 7-15 10-24 7l-56-18c-13 10-28 19-44 26l-12 57c-2 9-9 16-19 17a258 258 0 0 1-85 0c-9-1-16-8-18-17l-12-57c-16-7-31-16-44-26l-56 18c-9 3-19 0-24-7-9-10-16-20-23-31l-4-8c-6-11-12-23-16-35-3-8-1-18 6-24l44-40a196 196 0 0 1 0-50l-44-40c-7-6-9-16-6-24 4-12 10-24 16-35l4-8 23-31c6-7 15-10 24-7l56 18c13-10 28-19 44-25l12-58c2-9 9-16 19-17a248 248 0 0 1 85 0c9 1 16 8 18 17l12 57c16 7 31 16 44 26l56-18c9-3 18 0 24 7 8 10 16 20 22 31l5 8c6 11 12 23 16 35zM256 336a80 80 0 1 0 0-160 80 80 0 1 0 0 160z"/></svg>